<svg id="Layer_1" data-name="Layer 1" xmlns="http://www.w3.org/2000/svg" viewBox="0 0 356.78 426.53"><title>logo</title><path d="M278.5,483.75A133.83,133.83,0,0,0,190.94,516l.06,0s-16.5,17.5-5.5,29.5,25.84,1.16,28.5-4.5c6-12.77,14.84-20.46,25.65-25.19a109.7,109.7,0,0,1,38.85-7.06c24.84,0,47.15,7.39,65.87,21.6-5.49-12.4-11.76-25.18-18.46-38.25A135.73,135.73,0,0,0,278.5,483.75Z" transform="translate(-181.72 -171)"/><path d="M469.68,409.93c2.53-10.9-.22-24.27-7.05-60.11-6.2-32.54-10.56-60.8-16.28-104.22,4.78-5.27,20.33-26.28,18.63-74.6-26.5,3.79-53,19.2-55.74,20.85a79.29,79.29,0,0,0-59.58,0c-3.25-1.92-29.45-17.06-55.66-20.8-1.66,47.19,13.13,68.32,18.27,74.2-6.15,43.64-9.91,72-16.13,104.62-9.25,48.56-10.68,55.68-2.31,71.69C327,485,360.89,541.75,370.14,590.31c1.19,6.24,4.9,7.25,7.24,7.22H378l-1.57-209.68a15,15,0,1,1,6.38.14L380,597.53h1.37c2.34,0,6.06-1,7.25-7.22,8.68-45.62,37.56-98.47,70-157.35A69,69,0,0,1,444.5,569.5a67.3,67.3,0,0,1-40.59-13.43A228.56,228.56,0,0,0,396.42,581,92.9,92.9,0,0,0,444.5,594.5a94,94,0,0,0,25.18-184.57Z" transform="translate(-181.72 -171)"/><path d="M617.5,596.5" transform="translate(-181.72 -171)"/></svg>